<svg width="78" height="46" viewBox="0 0 78 46" fill="none" xmlns="http://www.w3.org/2000/svg">
<path d="M55.7689 11.8613C56.9453 11.8613 57.899 10.9076 57.899 9.73119C57.899 8.55476 56.9453 7.60107 55.7689 7.60107C54.5924 7.60107 53.6388 8.55476 53.6388 9.73119C53.6388 10.9076 54.5924 11.8613 55.7689 11.8613Z" fill="#FE4747"/>
<path fill-rule="evenodd" clip-rule="evenodd" d="M64.4905 14.538L58.8255 25.9818C61.6446 28.7289 66.3631 28.5821 68.9673 25.3716L70.6151 23.3403L67.9367 23.1535C66.7383 23.07 65.8345 22.0307 65.918 20.8322C66.0016 19.6337 67.0409 18.7299 68.2393 18.8135L75.0915 19.2913C76.2314 19.3708 77.1155 20.3186 77.1155 21.4613V30.2431C77.1155 31.4445 76.1416 32.4184 74.9402 32.4184C73.7388 32.4184 72.7649 31.4445 72.7649 30.2431V27.596L72.3461 28.1123C68.4019 32.9746 61.4888 33.5304 56.8357 30.0013L50.707 42.3818C48.5666 46.709 42.1235 45.6888 41.4251 40.9115L37.9832 17.3711C37.8094 16.1824 38.6322 15.0778 39.8209 14.904C41.0097 14.7302 42.1142 15.553 42.288 16.7417L45.7299 40.2821C45.7566 40.4649 45.8232 40.5568 45.8825 40.6132C45.9546 40.6818 46.0661 40.7417 46.2059 40.7638C46.3458 40.786 46.4703 40.7634 46.56 40.7204C46.6339 40.6851 46.7256 40.6183 46.8075 40.4527L53.7716 26.3846L47.3418 15.0074C44.3867 9.77854 46.842 3.14799 52.4899 1.10472C60.7158 -1.87121 68.3714 6.69829 64.4905 14.538ZM53.9699 5.1958C58.5088 3.55377 62.7329 8.28217 60.5915 12.6079L56.105 21.671L51.1294 12.8669C49.4989 9.98176 50.8536 6.32322 53.9699 5.1958Z" fill="#FE4747"/>
<path d="M14.6982 43.857C15.1552 44.3466 15.7101 44.5914 16.3629 44.5914C16.9505 44.5914 17.4564 44.4119 17.8807 44.0528C18.3051 43.6612 18.5336 43.1715 18.5662 42.584L19.3496 32.4978C19.4149 32.1061 19.5454 31.9102 19.7413 31.9102C19.9698 31.9102 20.133 32.0571 20.2309 32.3509L23.0707 40.2828C23.3319 40.805 23.6746 41.2294 24.0989 41.5558C24.5559 41.8822 25.0129 42.0454 25.4699 42.0454C26.645 42.0454 27.461 41.4415 27.918 40.2338L30.7578 32.253C30.8557 31.9266 31.0189 31.7634 31.2474 31.7634C31.4759 31.7634 31.6064 31.9592 31.6391 32.3509L32.3735 42.584C32.4388 43.1715 32.6673 43.6612 33.059 44.0528C33.4833 44.4119 33.9893 44.5914 34.5768 44.5914C35.2296 44.5914 35.7682 44.3466 36.1926 43.857C36.6495 43.3674 36.8291 42.7962 36.7312 42.1433L34.6747 26.4265C34.5768 25.7084 34.283 25.1372 33.7934 24.7128C33.3364 24.2558 32.7326 24.0273 31.9818 24.0273C30.6109 24.0273 29.7132 24.6312 29.2889 25.8389L25.9595 35.4355C25.8616 35.7619 25.6984 35.9251 25.4699 35.9251C25.3067 35.9251 25.1434 35.7619 24.9802 35.4355L21.6508 25.8389C21.2265 24.6312 20.3125 24.0273 18.9089 24.0273C18.2235 24.0273 17.6359 24.2558 17.1463 24.7128C16.6567 25.1372 16.3629 25.7084 16.265 26.4265L14.2086 42.1433C14.1107 42.7962 14.2739 43.3674 14.6982 43.857Z" fill="#FE4747"/>
<path d="M0.636508 44.0039C1.09349 44.3956 1.61575 44.5914 2.2033 44.5914C2.79084 44.5914 3.29678 44.3956 3.72112 44.0039C4.1781 43.5795 4.40659 43.0899 4.40659 42.535V37.345C4.40659 36.6922 4.733 36.3658 5.38583 36.3658H9.98827C10.5432 36.3658 11.0165 36.1863 11.4082 35.8272C11.8325 35.4355 12.0447 34.9622 12.0447 34.4073C12.0447 33.8198 11.8488 33.3465 11.4571 32.9874C11.0981 32.6284 10.6085 32.4488 9.98827 32.4488H5.38583C4.733 32.4488 4.40659 32.1224 4.40659 31.4696V29.2663C4.40659 28.6135 4.733 28.287 5.38583 28.287H10.6737C11.2613 28.287 11.7509 28.0912 12.1426 27.6995C12.5343 27.3078 12.7302 26.8345 12.7302 26.2796C12.7302 25.6594 12.5506 25.1698 12.1916 24.8107C11.8325 24.4517 11.3266 24.2722 10.6737 24.2722H3.03565C2.12169 24.2722 1.38726 24.5496 0.832356 25.1045C0.277452 25.6268 0 26.3612 0 27.3078V42.535C0 43.0899 0.212169 43.5795 0.636508 44.0039Z" fill="#FE4747"/>
</svg>